<?xml version="1.0" encoding="utf-8"?>
<!-- Generator: Adobe Illustrator 15.0.0, SVG Export Plug-In . SVG Version: 6.00 Build 0)  -->
<!DOCTYPE svg PUBLIC "-//W3C//DTD SVG 1.1//EN" "http://www.w3.org/Graphics/SVG/1.1/DTD/svg11.dtd">
<svg version="1.1" id="Calque_1" xmlns="http://www.w3.org/2000/svg" xmlns:xlink="http://www.w3.org/1999/xlink" x="0px" y="0px"
	 width="750px" height="1000px" viewBox="0 0 750 1000" enable-background="new 0 0 750 1000" xml:space="preserve">
<g>
	<path fill-rule="evenodd" clip-rule="evenodd" d="M1.047,0.062c249.629,0,499.282,0,748.906,0c0,333.284,0,666.602,0,999.875
		c-249.974,0-499.933,0-749.906,0c0-332.297,0-664.578,0-996.875C-0.039,1.643-0.118,0.23,1.047,0.062z M78.037,111.049
		c1.492,17.812,14.492,27.022,32.996,29.996c-4.785,12.267-0.642,28.04,5.999,34.996c-11.749,22.474,5.026,46.407,26.997,47.994
		c-10.832,25.139,10.218,47.564,32.996,45.994c7.915-0.545,16.036-8.918,21.997,0c-9.909,6.088-17.108,14.888-15.998,31.996
		c-50.881-25.523-68.625,55.001-22.997,60.992c25.024,3.286,38.873-15.781,38.995-35.996c24.156,15.905,59.221,7.748,60.992-21.997
		c1.212-20.353-13.038-30.522-29.996-36.996c7.012-3.653,11.204-10.126,14.998-16.998c13.724,11.597,34.568,9.28,44.995,0
		c21.534-19.167,7.879-58.369-22.997-57.993c-17.129,0.208-24.351,10.388-31.996,21.997c-6.194-9.788-30.544-10.563-39.995-3
		c-3.636-5.696-12.707-5.958-18.998-8.999c5.718-9.255,2.042-24.813-3-31.996c4.088-2.244,6.018-6.647,8.999-9.999
		c20.436,23.688,60.469,9.11,59.993-20.998c-0.523-33.072-46.921-43.96-62.992-14.998c-6.545-8.859-19.416-15.349-34.996-11.999
		C149.048,61.231,74.248,65.811,78.037,111.049z M39.042,165.042c1.513,29.047,36.842,42.147,56.993,21.997
		c22.055-22.055,3.279-58.903-26.997-55.993C50.465,132.832,37.962,144.318,39.042,165.042z M70.038,268.029
		c-0.458,47.345,80.751,40.697,64.992-10.999c-4.521-14.832-20.191-22.463-34.996-20.997
		C81.455,237.873,70.221,249.187,70.038,268.029z M439.992,261.03c-16.163,37.87,30.578,58.602,52.993,38.995
		c26.709-23.362,0.826-60.91-26.997-56.993C450.547,245.206,442.377,255.44,439.992,261.03z M339.004,246.032
		c-30.893-5.27-48.833,26.241-34.996,49.994c-31.042,17.153-13.517,67.666,23.997,60.993c19.08-3.394,31.854-25.68,20.998-48.994
		C374.978,291.845,366.726,250.761,339.004,246.032z M59.04,360.018c0,28.14,36.252,44.738,56.993,23.997
		c22.062-22.062,1.99-58.231-25.997-55.993C68.693,329.729,59.04,341.932,59.04,360.018z M379.999,357.018
		c-3.568,20.636,11.793,37.431,28.997,40.995c4.408,38.842,61.549,34.875,64.991-1c1.631-16.991-11.161-35.291-28.996-36.995
		C442.249,322.098,385.784,323.566,379.999,357.018z M241.017,406.012c46.354,0.262,41.172-74.783-6.999-64.992
		C193.712,349.212,205.264,405.81,241.017,406.012z M504.983,353.019c-18.272,23.75,7.174,66.152,40.995,50.994
		c9.327-4.181,22.468-17.342,17.998-38.996c-3.235-15.672-18.471-26.783-38.995-22.997
		C515.706,343.731,508.658,348.243,504.983,353.019z M624.969,365.017c-37.631-4.49-48.092,45.266-23.997,60.993
		c-24.275,7.316-59.32,16.232-50.993,49.994c1.175,4.766,4.63,7.584,6.999,12.999c-3.423,11.861,3.289,21.961,7.999,28.997
		c-10.06,4.271-15.133,13.53-17.998,24.996c-23.245,3.104-29.012,28.957-26.997,53.994c-9.355,4.983-19.263,11.346-21.997,22.997
		c-3.884,16.552,5.412,29.68,14.998,38.995c-2.265,4.03-3.559,7.212-3.999,10.998c-3.091,26.583,13.209,31.586,31.996,37.995
		c4.021,1.372,7.244,4.267,9.998,5c52.87,14.065,54.246-77.768,11.999-80.99c0-2.999,0-5.999,0-8.999
		c9.898-4.727,18.107-10.788,20.997-20.997c2.259-7.98-2.895-20.173,6.999-23.997c-12.139,49.022,68.135,56.139,64.992,5.999
		c19.98-2.35,29.1-15.562,31.996-34.995c35.06,4.131,42.708-47.711,17.998-60.993c4.958-5.487,8.365-11.145,8.998-18.998
		c3.245-40.248-55.6-48.749-64.991-11.999c-12.069-5.266-22.052-17.939-27.997-25.997
		C663.242,428.91,660.771,369.289,624.969,365.017z M278.012,412.011c-0.922,42.289,59.912,43.155,65.992,7.999
		c4.727-27.33-15.438-43.069-38.995-38.995C288.438,383.881,278.393,394.565,278.012,412.011z M195.022,462.005
		c52.591,20.291,63.445-72.244,6.999-62.992C169.319,404.373,166.024,450.816,195.022,462.005z M67.039,413.011
		c-23.004-2.839-36.161,12.621-37.995,27.997c-4.157,34.841,41.493,51.077,60.992,22.997c4.329,13.578,14.101,22.458,26.997,23.997
		c44.159,5.269,53.104-68.268,3-65.992c-12.944,0.588-17.941,7.739-26.997,13.998C88.876,423.204,80.248,414.642,67.039,413.011z
		 M538.979,459.005c-10.543-28.303-58.563-26.818-63.992,5c-2.404,14.096,3.461,25.934,12.999,34.996
		c-4.604,4.741-9.25,8.407-10.999,13.998c-8.701,27.812,11.631,45.242,31.996,44.995c30.676-0.374,43.997-40.732,18.997-59.993
		C537.267,489.571,544.786,474.593,538.979,459.005z M388.998,526.996c47.086,1.137,42.528-72.989-4.999-64.991
		C344.677,468.622,352.086,526.106,388.998,526.996z M226.019,492.001c-17.833,46.921,50.618,61.309,61.992,23.997
		c8.744-28.683-15.028-47.943-38.995-42.995C235.844,475.723,229.005,484.143,226.019,492.001z M92.035,499
		c-41.734-5.151-52.543,55.304-12.998,64.992c-20.098,17.883-10.267,49.797,9.999,56.992c5.763,2.047,14.095-0.017,16.998,7
		c-6.043,5.288-12.16,10.503-13.999,19.997c-30.688,16.215-16.406,67.709,21.998,61.992c12.705-1.891,21.199-11.036,24.997-23.997
		c19.817-6.938,23.891-44.809,5-55.993c24.643-12.893,17.243-64.597-16.998-60.992c-5.3-5.031-11.365-9.299-18.998-11.998
		C129.697,538.685,116.257,501.99,92.035,499z M171.025,565.992c45.653-0.001,40.771-72.863-5.999-64.992
		C127.232,507.359,129.934,565.992,171.025,565.992z M249.016,610.986c44.164-1.003,39.91-74.122-7.999-64.992
		C204.333,552.985,207.442,611.93,249.016,610.986z M352.003,584.989c8.455-49.56-66.438-53.023-65.992-5.999
		c0.096,10.142,5.818,15.237,7.999,21.997c-18.813,3.441-32.457,15.751-28.997,38.995c5.571,37.426,66.422,32.537,65.992-6.999
		c-0.1-9.156-5.174-15.587-7.999-21.997C338.336,608.98,350.112,596.072,352.003,584.989z M498.984,594.988
		c-5.308-25.71-46.896-32.775-60.992-8.999c-20.248-15.291-49.912-3.244-52.993,19.997c-3.06,23.078,10.782,38.985,35.995,38.995
		c-4.624,4.708-7.454,11.211-9.999,17.998c-7.714-10.578-16.895-19.931-35.995-16.998c-38.464,5.906-33.793,71.677,12.998,64.992
		c3.613-0.517,5.888-2.977,9.999-3c-10.247,25.091,9.859,46.88,29.996,46.994c23.512,0.134,29.406-22.959,42.995-31.996
		c36.626,0.375,37.291-61.142,3.999-64.991c-4.226-13.872-19.199-21.993-33.995-21.997c1.702-1.964,2.335-4.998,4.999-6
		C472.13,647.241,505.616,627.111,498.984,594.988z M198.022,691.976c30.251,6.012,48.273-22.728,38.995-45.994
		c-5.403-13.548-21.871-21.675-38.995-17.997C163.775,635.339,167.912,685.992,198.022,691.976z M634.968,695.976
		c23.986,4.148,44.165-15.883,39.995-39.995c-2.856-16.518-20.509-26.596-35.996-24.997
		C598.094,635.204,603.818,690.589,634.968,695.976z M622.969,745.969c-5.722-3.174-15.776-1.89-22.997-0.999
		c-4.663-14.163-12.675-22.353-25.997-23.997c-53.968-6.662-46.359,80.431,6,63.992c9.422,42.864,78.873,24.029,62.992-21.998
		c7.953,2.884,16.093,1.017,23.997-1c-2.552,16.796-15.2,19.108-14.999,36.996c0.442,39.237,63.39,44.065,65.992,1.999
		c28.937-21.398-0.042-71.908-34.995-55.992C704.861,686.234,600.586,684.07,622.969,745.969z M286.011,771.966
		c33.221-15.219,17.846-68.71-20.998-61.992C218.041,718.097,241.955,792.148,286.011,771.966z M363.001,713.974
		c-24.251-3.102-46.936,19.76-35.996,45.994c-29.502,9.755-22.355,67.5,15.998,61.992c8.021,10.987,32.672,14.937,44.994,4.999
		c3.005,2.661,6.791,4.542,9.999,6.999c-12.753,7.761-15.879,34.643-4.999,46.994c-7.685,26.716,10.373,45.782,31.996,44.994
		c27.108-0.987,40.213-31.257,24.996-54.993c6.765-19.444-4.935-35.002-16.997-41.994c31.624-23.664-5.839-77.812-40.995-51.994
		c-3.296-3.036-7.271-5.394-10.999-7.998C399.734,749.392,387.622,717.121,363.001,713.974z M488.985,784.965
		c-24.791,24.791,3.538,67.896,36.996,54.992c-23.995,35.246,25.969,71.748,51.993,41.995c4.037-4.616,10.896-17.471,12.998-24.997
		c8.41-30.091-20.78-49.125-45.994-40.994C553.295,780.632,509.75,764.2,488.985,784.965z M320.007,875.953
		c3.843,33.025,62.53,40.328,65.992-1c1.957-23.366-16.129-37.356-34.996-35.995C328.543,840.578,317.696,856.093,320.007,875.953z"
		/>
	<path fill-rule="evenodd" clip-rule="evenodd" d="M616.97,511.998c6.825,2.508,8.27,10.396,14.998,12.999
		c-5.06,7.938-12.304,13.692-10.999,27.996c-2.482,1.184-5.885,1.448-8.998,2c3.049-11.99-1.067-24.729-7.999-29.996
		C608.386,520.746,614.648,518.344,616.97,511.998z"/>
</g>
</svg>
