<?xml version="1.0" encoding="utf-8"?>
<!-- Generator: Adobe Illustrator 15.0.0, SVG Export Plug-In . SVG Version: 6.00 Build 0)  -->
<!DOCTYPE svg PUBLIC "-//W3C//DTD SVG 1.1//EN" "http://www.w3.org/Graphics/SVG/1.1/DTD/svg11.dtd">
<svg version="1.1" id="Calque_1" xmlns="http://www.w3.org/2000/svg" xmlns:xlink="http://www.w3.org/1999/xlink" x="0px" y="0px"
	 width="750px" height="1000px" viewBox="0 0 750 1000" enable-background="new 0 0 750 1000" xml:space="preserve">
<g>
	<path fill-rule="evenodd" clip-rule="evenodd" fill="#FEC9B3" d="M291.963,419.947c0-0.333,0-0.667,0-1c1.496,0.17,3.69-0.357,4,1
		C294.63,419.947,293.297,419.947,291.963,419.947z"/>
	<path fill-rule="evenodd" clip-rule="evenodd" fill="#FEC9B3" d="M314.96,429.946c1.481,0.186,0.917,2.416,1,4
		C314.48,433.76,315.044,431.529,314.96,429.946z"/>
	<path fill-rule="evenodd" clip-rule="evenodd" fill="#FB9D7D" d="M358.955,432.946c-0.611-0.933-2.327-3.688,1-3
		C359.798,431.123,360.127,432.785,358.955,432.946z"/>
	<path fill-rule="evenodd" clip-rule="evenodd" fill="#FEC9B3" d="M337.958,431.946c1.342,0.658,1.862,2.137,2,4
		c-1.701,0.368-1.887-0.78-2-2C337.958,433.279,337.958,432.612,337.958,431.946z"/>
	<path fill-rule="evenodd" clip-rule="evenodd" fill="#FEC9B3" d="M366.954,432.946c0-0.333,0-0.667,0-1c1.496,0.17,3.69-0.357,4,1
		C369.621,432.946,368.287,432.946,366.954,432.946z"/>
	<path fill-rule="evenodd" clip-rule="evenodd" fill="#FEC9B3" d="M414.948,464.942c0.333,0,0.666,0,1,0
		c-0.171,1.496,0.356,3.69-1,4C414.948,467.608,414.948,466.275,414.948,464.942z"/>
	<path fill-rule="evenodd" clip-rule="evenodd" fill="#FEC9B3" d="M281.965,466.941c0,1.333,0,2.667,0,4
		C280.343,471.656,280.343,466.226,281.965,466.941z"/>
	<path fill-rule="evenodd" clip-rule="evenodd" fill="#FDB093" d="M420.947,486.939c0.667,0,1.333,0,2,0c0,0.667,0,1.333,0,2
		c-0.667,0-1.333,0-2,0C420.947,488.272,420.947,487.605,420.947,486.939z"/>
	<path fill-rule="evenodd" clip-rule="evenodd" fill="#FDB093" d="M268.966,520.935c1.701-0.367,1.887,0.78,2,2
		c-0.667,0-1.333,0-2,0C268.966,522.268,268.966,521.602,268.966,520.935z"/>
	<path fill-rule="evenodd" clip-rule="evenodd" fill="#FEC9B3" d="M412.948,548.932c1.48,0.186,0.917,2.416,1,3.999
		c-0.333,0-0.667,0-1,0C412.948,551.598,412.948,550.265,412.948,548.932z"/>
	<path fill-rule="evenodd" clip-rule="evenodd" fill="#FEC9B3" d="M275.965,557.931c-1.621,0.715-1.621-4.716,0-4
		C275.965,555.264,275.965,556.597,275.965,557.931z"/>
	<path fill-rule="evenodd" clip-rule="evenodd" fill="#FDB093" d="M311.961,575.928c-0.779-0.221-1.162-0.837-1-2
		c0.667,0,1.333,0,2,0C312.737,574.704,312.934,575.9,311.961,575.928z"/>
	<path fill-rule="evenodd" clip-rule="evenodd" fill="#FDB093" d="M308.961,577.928c0.057-0.61,0.149-1.184,1-1
		c1.31,0.016,1.273,2.773,0,3C309.737,579.151,309.934,577.955,308.961,577.928z"/>
	<path fill-rule="evenodd" clip-rule="evenodd" fill="#FEC9B3" d="M278.965,578.928c0-0.334,0-0.667,0-1c1.496,0.17,3.69-0.357,4,1
		C281.631,578.928,280.298,578.928,278.965,578.928z"/>
	<path fill-rule="evenodd" clip-rule="evenodd" fill="#FB9D7D" d="M278.965,578.928c1.333,0,2.666,0,4,0
		C283.68,580.549,278.25,580.549,278.965,578.928z"/>
	<path fill-rule="evenodd" clip-rule="evenodd" fill="#FDB093" d="M388.951,599.925c0.333,0,0.667,0,1,0c0,1.333,0,2.667,0,4
		c-0.333,0-0.666,0-1,0C388.951,602.592,388.951,601.258,388.951,599.925z"/>
	<path fill-rule="evenodd" clip-rule="evenodd" fill="#FEC9B3" d="M383.952,613.923c0.575-1.758-1.209-5.874,1-5.999
		c0,2,0,4,0,5.999C384.618,613.923,384.285,613.923,383.952,613.923z"/>
	<path fill-rule="evenodd" clip-rule="evenodd" fill="#FDB093" d="M294.963,609.924c0.333,0,0.667,0,1,0
		c0.779,0.221,1.163,0.837,1,2c-0.667,0-1.333,0-2,0C294.963,611.257,294.963,610.59,294.963,609.924z"/>
	<path fill-rule="evenodd" clip-rule="evenodd" fill="#FB9D7D" d="M374.953,622.922c2.994,0.658-0.956,2.138,0,4
		C372.466,626.771,374.661,623.536,374.953,622.922z"/>
	<path fill-rule="evenodd" clip-rule="evenodd" fill="#FDB093" d="M301.962,631.921c-0.168-2.168,3.546-0.453,4.999-1
		c-0.027,0.973-1.224,0.776-2,1C303.962,631.921,302.962,631.921,301.962,631.921z"/>
	<path fill-rule="evenodd" clip-rule="evenodd" fill="#FDB093" d="M310.961,636.92c0,0.667,0,1.334,0,2
		c-0.095,1.571,0.134,3.467-2,3c0-0.334,0-0.667,0-1c1.48-0.186,0.917-2.416,1-4C310.294,636.92,310.628,636.92,310.961,636.92z"/>
	<path fill-rule="evenodd" clip-rule="evenodd" fill="#FEC9B3" d="M323.959,657.918c0-1,0-2,0-3c1.322,0.012,0.914,1.753,2,2
		c1.009,0.012,1.258,1.752,0,2C325.738,658.139,325.122,657.755,323.959,657.918z"/>
	<path fill-rule="evenodd" clip-rule="evenodd" fill="#FEC9B3" d="M294.963,411.948c0.914-1.752,1.859-3.474,5-3
		c0.184,0.851-0.39,0.943-1,1C296.234,409.221,296.95,411.936,294.963,411.948z"/>
	<path fill-rule="evenodd" clip-rule="evenodd" fill="#FDB093" d="M298.962,409.949c0.61-0.057,1.184-0.149,1-1
		c1.177,0.157,2.838-0.172,3,1c-1,0-2,0-3,0c0.529,0.804,1.043,1.623,1,3c-1.086-0.247-0.678-1.988-2-2
		C298.962,410.615,298.962,410.282,298.962,409.949z"/>
	<path fill-rule="evenodd" clip-rule="evenodd" fill="#FB9D7D" d="M294.963,411.948c1.987-0.013,1.271-2.728,4-2
		c0,0.333,0,0.667,0,1c-6.519,4.893-0.915,4.631,2,8.999c0.903,1.763,2.236,3.096,4,4c0,0.667,0,1.333,0,2
		c-1.086,0.247-0.678,1.988-2,2c0-1,0-2,0-3c-0.729-2.271-3.008-2.99-4.999-4c-0.028-0.972-1.224-0.776-2-1
		c-0.31-1.357-2.503-0.829-4-1c-2.279-0.28-3.759,0.241-4,2c-0.933,0.611-3.688,2.327-3-1c1.256-0.41,2.043-1.289,2-3c1,0,2,0,3,0
		c2.193,3.086,5.181-1.406,4.999-4C294.963,412.615,294.963,412.282,294.963,411.948z"/>
	<path fill-rule="evenodd" clip-rule="evenodd" fill="#FB9D7D" d="M278.965,412.948c-1.167,3.887-2.614,0.271-4-1
		C275.947,408.883,277.633,413.098,278.965,412.948z"/>
	<path fill-rule="evenodd" clip-rule="evenodd" fill="#FDB093" d="M294.963,412.948c0.182,2.593-2.806,7.086-4.999,4
		c0.333,0,0.667,0,1,0c0.333,0,0.666,0,1,0C294.025,416.676,292.202,412.52,294.963,412.948z"/>
	<path fill-rule="evenodd" clip-rule="evenodd" fill="#FEC9B3" d="M300.962,419.947c1.763,0.904,3.096,2.237,4,4
		C303.199,423.043,301.866,421.71,300.962,419.947z"/>
	<path fill-rule="evenodd" clip-rule="evenodd" fill="#FEC9B3" d="M297.963,420.947c1.991,1.009,4.271,1.729,4.999,4
		c-1.427-0.239-1.686-1.646-3-2C299.072,422.504,298.174,422.069,297.963,420.947z"/>
	<path fill-rule="evenodd" clip-rule="evenodd" fill="#FB9D7D" d="M249.969,423.947c-2.487-0.15-0.292-3.386,0-4
		c0.667,0,1.333,0,2,0C252.697,422.675,249.981,421.96,249.969,423.947z"/>
	<path fill-rule="evenodd" clip-rule="evenodd" fill="#FEC9B3" d="M249.969,423.947c0.013-1.987,2.728-1.271,2-4
		C254.678,420.853,251.126,423.628,249.969,423.947z"/>
	<path fill-rule="evenodd" clip-rule="evenodd" fill="#FEC9B3" d="M281.965,429.946c0.224-0.776,0.027-1.972,1-2
		c-1.008,3.008,2.228,1.772,3.999,2c0,0.333,0,0.667,0,1c-1.257,0.247-1.008,1.988,0,2c0,0.333,0,0.667,0,1
		c-1.313-0.354-1.572-1.76-3-2c-0.333,0-0.667,0-1,0C282.774,431.136,281.961,430.949,281.965,429.946z"/>
	<path fill-rule="evenodd" clip-rule="evenodd" fill="#FB9D7D" d="M289.964,427.946c1.541,2.126,3.609,3.724,4.999,6
		c0,2,0,4,0,5.999c-1,0-2,0-3,0c-1.446-1.887-2.233-4.432-5.999-4c-0.333,0-0.667,0-1,0c-0.314-1.352-1.423-1.91-1-4
		c1.427,0.24,1.687,1.646,3,2c0.667,0,1.333,0,2,0c0.982,1.351,2.668,1.998,4,3c1.052-4.385-3.382-3.284-3-6.999c-1,0-2,0-3,0
		c-1.771-0.228-5.007,1.008-3.999-2C285.298,427.946,287.631,427.946,289.964,427.946z"/>
	<path fill-rule="evenodd" clip-rule="evenodd" fill="#FEC9B3" d="M291.963,439.945c-2.039-0.294-1.96-2.705-4-3
		c-0.776-0.224-1.972-0.028-2-1C289.73,435.513,290.518,438.058,291.963,439.945z"/>
	<path fill-rule="evenodd" clip-rule="evenodd" fill="#FDB093" d="M282.965,433.946c0-0.667,0-1.333,0-2c0.333,0,0.667,0,1,0
		c-0.423,2.09,0.686,2.648,1,4C283.843,435.734,283.408,434.836,282.965,433.946z"/>
	<path fill-rule="evenodd" clip-rule="evenodd" fill="#FDB093" d="M312.961,430.946c-1.448-2.894,2.747-4.639,2-1
		c-1.44,0.226-0.349,2.984-2,3C312.961,432.279,312.961,431.613,312.961,430.946z"/>
	<path fill-rule="evenodd" clip-rule="evenodd" fill="#FB9D7D" d="M366.954,431.946c-0.003-1.003,0.81-1.19,1-2
		c1.891,0.224,2.206-1.127,4-1c0,1.333,0,2.667,0,4c-0.333,0-0.667,0-1,0C370.644,431.589,368.45,432.116,366.954,431.946z"/>
	<path fill-rule="evenodd" clip-rule="evenodd" fill="#FB9D7D" d="M315.96,433.946c-0.09,2.728,1.666,2.013,0,4
		c-3.034,0.367-2.076-3.257-3-5c1.651-0.015,0.56-2.773,2-3C315.044,431.529,314.48,433.76,315.96,433.946z"/>
	<path fill-rule="evenodd" clip-rule="evenodd" fill="#FEC9B3" d="M346.957,432.946c-3.507,0.879-1.743-3.296,0-3
		C348.23,430.172,348.267,432.931,346.957,432.946z"/>
	<path fill-rule="evenodd" clip-rule="evenodd" fill="#FDB093" d="M359.955,429.946c0.61,0.057,1.184,0.149,1,1c0,0.333,0,0.667,0,1
		c-0.224,0.776-0.028,1.972-1,2c-0.61-0.057-1.184-0.149-1-1C360.127,432.785,359.798,431.123,359.955,429.946z"/>
	<path fill-rule="evenodd" clip-rule="evenodd" fill="#FEC9B3" d="M400.95,432.946c0.778,0.221,1.162,0.837,1,2
		c-0.61,0.057-1.185,0.149-1,1c-0.776-0.224-1.973-0.027-2-1C400.17,434.833,401.317,434.646,400.95,432.946z"/>
	<path fill-rule="evenodd" clip-rule="evenodd" fill="#FB9D7D" d="M398.95,431.946c0.776,0.224,1.972,0.028,2,1
		c0.367,1.701-0.78,1.887-2,2c-3.246,0.087-0.704,5.962-4.999,4.999c-2,0-4,0-6,0c-0.333,0-0.666,0-1,0
		c-1.062-1.937-5.759-0.24-5.999-3c0.733-1.78,1.818-0.144,3,0c2.333,0,4.666,0,6.999,0c0.271,2.355,4.428,0.611,3.999-1
		c0-0.333,0-0.667,0-1c1.023-0.977,2.023-1.977,3-3C398.283,431.946,398.617,431.946,398.95,431.946z"/>
	<path fill-rule="evenodd" clip-rule="evenodd" fill="#FEC9B3" d="M354.956,432.946c0.81,0.19,0.997,1.003,2,1
		c-0.19,0.81-1.003,0.997-1,2c-0.81-0.19-0.997-1.003-2-1C354.146,434.136,354.958,433.949,354.956,432.946z"/>
	<path fill-rule="evenodd" clip-rule="evenodd" fill="#FDB093" d="M335.958,439.945c-2.054-0.279-1.996-2.67-3-4
		C335.013,436.225,334.954,438.616,335.958,439.945z"/>
	<path fill-rule="evenodd" clip-rule="evenodd" fill="#FDB093" d="M373.953,434.946c0.667,0,1.333,0,2,0c0,0.667,0,1.333,0,2
		c-0.667,0-1.333,0-2,0C373.953,436.279,373.953,435.612,373.953,434.946z"/>
	<path fill-rule="evenodd" clip-rule="evenodd" fill="#FDB093" d="M386.951,439.945c-4.564,1.508-8.389-2.866-5.999-4.999
		c1.721-0.054,2.563,0.77,3,2c-1.182-0.144-2.267-1.78-3,0C381.192,439.705,385.889,438.008,386.951,439.945z"/>
	<path fill-rule="evenodd" clip-rule="evenodd" fill="#FEC9B3" d="M269.966,543.932c-2.768-2.752,0.898-4.176,1-6.999
		c3.583,2.147-3.885,4.251,0,6.999C270.633,543.932,270.299,543.932,269.966,543.932z"/>
	<path fill-rule="evenodd" clip-rule="evenodd" fill="#FB9D7D" d="M411.948,438.945c-0.129-1.795,0.993-2.34,3-2
		c0.333,0,0.667,0,1,0c0.771,2.561,0.997,5.668,2.999,6.999c0.004,1.003-0.81,1.19-1,2c-2.306,0.306-1.11-2.889-2.999-3
		c0-0.667,0-1.333,0-2c-4.193-3.147-3.372,7.26-9.999,5c-0.666,0-1.333,0-2,0c-0.528-0.804-1.043-1.624-0.999-3
		c0.804,0.529,1.623,1.043,2.999,1c0.333,0,0.667,0,1,0C409.264,443.593,410.287,440.95,411.948,438.945z"/>
	<path fill-rule="evenodd" clip-rule="evenodd" fill="#FDB093" d="M406.949,442.945c2.322-0.677,2.677-3.323,4.999-4
		c-1.661,2.004-2.685,4.647-5.999,4.999C406.006,443.334,406.099,442.761,406.949,442.945z"/>
	<path fill-rule="evenodd" clip-rule="evenodd" fill="#FEC9B3" d="M340.958,440.945c0-1,0-2,0-3
		C344.579,437.404,344.579,441.486,340.958,440.945z"/>
	<path fill-rule="evenodd" clip-rule="evenodd" fill="#FB9D7D" d="M319.96,440.945c1.003,0.003,1.19-0.81,2-1
		c0.156,1.177-0.172,2.838,1,3c-0.224,1.89,1.127,2.206,1,4c-2.812-0.188-4.26-1.74-4-5
		C319.96,441.612,319.96,441.278,319.96,440.945z"/>
	<path fill-rule="evenodd" clip-rule="evenodd" fill="#FEC9B3" d="M320.96,446.944c-0.293-1.184-4.027-3.777-1-5
		c-0.26,3.26,1.187,4.812,4,5c0,0.333,0,0.667,0,1C322.541,448.03,321.128,448.109,320.96,446.944z"/>
	<path fill-rule="evenodd" clip-rule="evenodd" fill="#FDB093" d="M344.957,443.944c-0.752-5.761,5.073-2.336,3,2
		c-0.333,0-0.667,0-1,0C347.164,441.932,346.703,441.472,344.957,443.944z"/>
	<path fill-rule="evenodd" clip-rule="evenodd" fill="#FEC9B3" d="M344.957,448.944c0.239-1.427,1.646-1.687,2-3
		c0.333,0,0.667,0,1,0c0,0.333,0,0.667,0,1C347.52,448.174,346.677,448.998,344.957,448.944z"/>
	<path fill-rule="evenodd" clip-rule="evenodd" fill="#FDB093" d="M402.949,445.944c-1.121-0.211-1.557-1.11-1.999-2
		c-0.689-3.326,2.066-1.611,2.999-1c0.61,0.057,1.184,0.149,1,1c-1.376,0.043-2.195-0.471-2.999-1
		C401.906,444.321,402.421,445.14,402.949,445.944z"/>
	<path fill-rule="evenodd" clip-rule="evenodd" fill="#FEC9B3" d="M328.959,444.944c0,0.667,0,1.333,0,2
		C324.084,447.945,327.114,441.623,328.959,444.944z"/>
	<path fill-rule="evenodd" clip-rule="evenodd" fill="#FEC9B3" d="M414.948,444.944c0-0.667,0-1.333,0-2
		c1.889,0.111,0.693,3.305,2.999,3c0.19-0.81,1.004-0.997,1-2c0.973,0.028,0.776,1.224,1,2c-2.806-0.428,2.506,3.728-1,4
		C415.916,449.975,417.979,444.913,414.948,444.944z"/>
	<path fill-rule="evenodd" clip-rule="evenodd" fill="#FB9D7D" d="M277.965,446.944c0.196,3.863,0.036,7.368-1,9.999
		c-0.688-3.978-2.398-6.934-5-8.999C273.148,446.792,275.5,446.812,277.965,446.944z"/>
	<path fill-rule="evenodd" clip-rule="evenodd" fill="#FB9D7D" d="M419.947,451.943c5.54-0.309,2.749,1.921,3,6
		c-2.209,0.125-0.425,4.241-1,5.999c-1.162-0.163-1.779,0.221-2,1c-0.333,0-0.666,0-1,0c-1.356,0.309-0.829,2.503-1,4
		c1.667,0,3.333,0,5,0c-0.184,0.851,0.39,0.943,1,1c-0.027,0.972-1.224,0.776-2,1c-3.056-0.722-3.644,1.022-5.999,1
		c0.281-1.615-0.945-1.721-1-3c1.356-0.31,0.829-2.503,1-4c0.732-0.934,1.817-1.515,2.999-2c0.811-0.19,0.997-1.003,2-1
		c0-1.333,0-2.667,0-4c-0.547-1.453,1.168-5.168-1-5C419.947,452.61,419.947,452.277,419.947,451.943z"/>
	<path fill-rule="evenodd" clip-rule="evenodd" fill="#FDB093" d="M419.947,457.943c0.334,0,0.667,0,1,0c0,1.333,0,2.666,0,4
		c-1.003-0.003-1.189,0.81-2,1c0-0.333,0-0.667,0-1C420.305,461.633,419.777,459.439,419.947,457.943z"/>
	<path fill-rule="evenodd" clip-rule="evenodd" fill="#FEC9B3" d="M270.966,459.942c-0.396-1.94,4.554-1.46,3,1
		C273.855,463.39,270.66,461.155,270.966,459.942z"/>
	<path fill-rule="evenodd" clip-rule="evenodd" fill="#FB9D7D" d="M280.965,464.942c3.252,1.566,5.387-5.167,5.999,0
		c-0.147,2.186-2.519,2.147-4.999,2c-1.622-0.715-1.622,4.715,0,4c0.443,0.89,0.878,1.789,2,2c0.325,1.151,4.362,3.442,5,1
		c0.333,0,0.667,0,1,0c-0.154-2.487,1.571-3.096,2-5c1.44-0.226,0.349-2.984,2-3c1.094,4.427-1.694,4.972-2,7.999
		c-0.777,0.89-1.075,2.258-1,4c-2.275-0.725-5.108-0.892-7-2c-2.837-1.828-5.642-3.69-4.999-8.999
		C279.855,466.499,280.753,466.063,280.965,464.942z"/>
	<path fill-rule="evenodd" clip-rule="evenodd" fill="#FDB093" d="M421.947,470.941c0.776-0.224,1.973-0.027,2-1
		c1.162-0.163,1.778,0.221,1.999,1c0,0.333,0.001,0.667,0,1c-1.086,0.247-0.678,1.988-1.999,2c0.162-1.163-0.221-1.779-1-2
		c-0.333,0-0.667,0-1,0C421.947,471.608,421.947,471.274,421.947,470.941z"/>
	<path fill-rule="evenodd" clip-rule="evenodd" fill="#FEC9B3" d="M426.946,471.941c0.424,2.09-0.685,2.648-1,4
		c0.185,0.851-0.39,0.943-0.999,1c-0.41-2.409,1.826-2.173,0.999-5c0.001-0.333,0-0.667,0-1
		C426.797,470.757,426.89,471.331,426.946,471.941z"/>
	<path fill-rule="evenodd" clip-rule="evenodd" fill="#FDB093" d="M423.947,480.94c0.851-0.184,0.943,0.39,1,1
		c0.856,3.484-1.574,3.464-2,1C423.92,482.912,423.723,481.716,423.947,480.94z"/>
	<path fill-rule="evenodd" clip-rule="evenodd" fill="#FEC9B3" d="M288.964,473.941c-0.638,2.442-4.674,0.151-5-1
		C286.374,472.531,286.138,474.767,288.964,473.941z"/>
	<path fill-rule="evenodd" clip-rule="evenodd" fill="#FB9D7D" d="M270.966,476.94c0.61-0.057,1.184-0.149,1-1
		c1.357,0.31,0.83,2.503,1,4c-1.656,1.01-1.086,4.247-2,6c0.715,1.621-4.715,1.621-4,0c0.586-2.081,2.101-3.232,3-5
		C271.323,480.63,270.796,478.437,270.966,476.94z"/>
	<path fill-rule="evenodd" clip-rule="evenodd" fill="#FB9D7D" d="M418.947,487.939c0,0.667,0,1.333,0,2c0,0.333,0,0.667,0,1
		c-1.553,1.447-4.665,1.333-5.999,3c-2.728-0.729-2.013,1.987-3.999,2c-1.163,0.163-1.779-0.221-2-1
		c1.332-1.001,3.018-1.648,3.999-3c1.313-1.02,3.687-0.98,5-2C417.299,490.107,417.946,484.854,418.947,487.939z"/>
	<path fill-rule="evenodd" clip-rule="evenodd" fill="#FEC9B3" d="M408.949,495.938c1.986-0.013,1.271-2.728,3.999-2
		c0.184,0.85-0.39,0.943-1,1c-1.427,0.24-1.687,1.646-2.999,2C408.949,496.604,408.949,496.271,408.949,495.938z"/>
	<path fill-rule="evenodd" clip-rule="evenodd" fill="#FB9D7D" d="M267.966,492.938c0.667,0,1.333,0,2,0c3.982-1.027,6.59-0.82,3,2
		c-3.499-0.166-6.4,0.266-7.999,2c-3.007-1.008-1.772,2.228-2,4c-3.469-0.469-0.574,5.426-3,5.999c-0.85,0.184-0.943-0.39-1-1
		c0-1.333,0-2.666,0-3.999c1.172-0.162,0.843-1.823,1-3C259.113,493.417,266.198,495.835,267.966,492.938z"/>
	<path fill-rule="evenodd" clip-rule="evenodd" fill="#FDB093" d="M401.95,501.938c2.214-0.785-0.191-6.19,3.999-5
		c-0.168-1.165-1.58-1.086-3-1c0.187-1.48,2.417-0.917,4-1c0.221,0.779,0.837,1.163,2,1c0,0.333,0,0.667,0,1
		c-1.42-0.086-2.832-0.165-3,1c-0.667,0-1.333,0-2,0c0,1.667,0,3.333,0,5c-0.333,0-0.666,0-1,0
		c-0.228,1.771,1.008,5.007-1.999,3.999C400.124,504.11,402.359,504.347,401.95,501.938z"/>
	<path fill-rule="evenodd" clip-rule="evenodd" fill="#FB9D7D" d="M400.95,497.938c1.121-0.211,1.557-1.109,1.999-2
		c1.42-0.086,2.832-0.165,3,1c-4.19-1.19-1.785,4.214-3.999,5c0.184-0.851-0.391-0.943-1-1
		C400.95,499.938,400.95,498.938,400.95,497.938z"/>
	<path fill-rule="evenodd" clip-rule="evenodd" fill="#FDB093" d="M398.95,517.936c1.763,0.903,3.096,2.236,3.999,3.999
		c-0.85,0.185-0.942-0.39-0.999-1c-0.851-0.184-0.943,0.391-1,1c-0.61-0.057-1.184-0.149-1-1c0.333,0,0.667,0,1,0
		c-0.19-0.81-1.004-0.996-1-1.999C399.1,519.119,399.007,518.545,398.95,517.936z"/>
	<path fill-rule="evenodd" clip-rule="evenodd" fill="#FEC9B3" d="M401.95,524.935c-1.837-1.497-2.493-4.173-5-5
		c-0.89-0.442-1.788-0.878-2-1.999c0-0.334,0-0.667,0-1c1.498,1.501,3.008,2.991,5,3.999c-0.184,0.851,0.39,0.943,1,1
		C401.479,522.739,401.993,523.558,401.95,524.935z"/>
	<path fill-rule="evenodd" clip-rule="evenodd" fill="#FEC9B3" d="M253.968,511.936c0.333,0,0.667,0,1,0c0,0.334,0,0.667,0,1
		c0.169,2.503-1.536,3.13-3,4C252.395,515.028,254.825,515.126,253.968,511.936z"/>
	<path fill-rule="evenodd" clip-rule="evenodd" fill="#FDB093" d="M254.968,518.936c0.911-0.775,4.109-6.444,0-6
		c0-0.333,0-0.666,0-1c1.376-0.043,2.195,0.472,3,1c0.339,3.101-2.315,4.777,0,6.999c0.667,0,1.333,0,2,0
		c-0.981,3.065-2.667-1.148-4-0.999c0,0.666,0,1.333,0,1.999C255.189,520.714,254.806,520.098,254.968,518.936z"/>
	<path fill-rule="evenodd" clip-rule="evenodd" fill="#FB9D7D" d="M254.968,518.936c-1.72,0.053-2.563-0.77-3-2
		c1.464-0.87,3.169-1.497,3-4C259.077,512.491,255.879,518.16,254.968,518.936z"/>
	<path fill-rule="evenodd" clip-rule="evenodd" fill="#FB9D7D" d="M259.967,519.935c1.674-1.325,3.351-2.648,7-1.999
		c-2.374,1.812-8.487,7.635-10.999,2.999c0-0.666,0-1.333,0-1.999C257.3,518.786,258.986,523,259.967,519.935z"/>
	<path fill-rule="evenodd" clip-rule="evenodd" fill="#FB9D7D" d="M403.949,523.935c-0.299,1.966,1.351,1.982,2,2.999
		c-1.173,1.263-4.155,0.802-3.999-1.999c0.043-1.377-0.472-2.195-1-3c0.057-0.609,0.149-1.184,1-1c0.057,0.61,0.149,1.185,0.999,1
		C403.174,522.711,402.978,523.907,403.949,523.935z"/>
	<path fill-rule="evenodd" clip-rule="evenodd" fill="#FDB093" d="M272.966,526.934c0.113-1.219,0.299-2.367,2-1.999
		c0,0.333,0,0.666,0,1c-1.342,0.657-1.862,2.137-2,3.999C271.41,529.673,272.272,527.74,272.966,526.934z"/>
	<path fill-rule="evenodd" clip-rule="evenodd" fill="#FEC9B3" d="M408.949,524.935c2.133-0.468,1.904,1.428,1.999,2.999
		c-0.81-0.189-0.996-1.003-1.999-1C408.949,526.268,408.949,525.601,408.949,524.935z"/>
	<path fill-rule="evenodd" clip-rule="evenodd" fill="#FB9D7D" d="M272.966,529.934c0.138-1.862,0.658-3.342,2-3.999
		C275.245,528.214,274.725,529.693,272.966,529.934z"/>
	<path fill-rule="evenodd" clip-rule="evenodd" fill="#FEC9B3" d="M415.948,526.934c3.868-0.869,3.557,2.442,5.999,3
		c0.851-0.184,0.943,0.39,1,1C419.829,530.385,418.646,527.903,415.948,526.934z"/>
	<path fill-rule="evenodd" clip-rule="evenodd" fill="#FB9D7D" d="M415.948,526.934c2.697,0.97,3.881,3.451,6.999,4
		c0.81,0.189,0.996,1.003,2,1c0.722,3.056-1.022,3.644-1,5.999c-0.955,1.712-3.318,2.015-4,4c-3.065-0.982,1.149-2.668,1-4
		c0.521-1.479,1.479-2.52,2-3.999c-1.982-3.045-11.784-3.512-7.999-8.999C414.945,525.938,415.758,526.124,415.948,526.934z"/>
	<path fill-rule="evenodd" clip-rule="evenodd" fill="#FEC9B3" d="M270.966,527.934c1.003,0.004,1.19-0.81,2-1
		c-0.693,0.807-1.556,2.739,0,3c-1.008,0.774-2.498,6.012-4,3C268.222,529.855,271.711,531.012,270.966,527.934z"/>
	<path fill-rule="evenodd" clip-rule="evenodd" fill="#FEC9B3" d="M419.947,542.932c-1.256-0.409-2.044-1.289-2-2.999
		c1.428-0.239,1.687-1.646,3-2c0.149,1.332-4.065,3.018-1,4c0.682-1.985,3.045-2.288,4-4c1.062,3.729-3.75,1.583-3,4.999
		C420.614,542.932,420.281,542.932,419.947,542.932z"/>
	<path fill-rule="evenodd" clip-rule="evenodd" fill="#FEC9B3" d="M270.966,544.932c1.576,0.091,0.783,2.551,3,2
		c0.015,1.651,2.773,0.56,3,2c-0.168,1.165-1.581,1.085-3,1C274.716,546.515,269.903,548.661,270.966,544.932z"/>
	<path fill-rule="evenodd" clip-rule="evenodd" fill="#FDB093" d="M282.965,558.93c4.78-1.114,4.218,3.114,8.999,2
		c-0.015,1.651-2.773,0.56-3,2c-0.333,0-0.667,0-1,0c-0.333,0-0.667,0-1,0c0.169-2.168-3.546-0.453-4.999-1c0-0.333,0-0.667,0-1
		c1.667,0,3.333,0,4.999,0C287.68,558.215,282.249,561.646,282.965,558.93z"/>
	<path fill-rule="evenodd" clip-rule="evenodd" fill="#FEC9B3" d="M307.961,560.93c0.614-0.292,3.849-2.487,4,0
		c-4.487-0.821-4.465,2.867-6.999,4c0.19-0.811,1.003-0.997,1-2C306.405,562.039,306.84,561.142,307.961,560.93z"/>
	<path fill-rule="evenodd" clip-rule="evenodd" fill="#FB9D7D" d="M291.963,560.93c1.583,0.083,3.814-0.48,4,1c0,0.333,0,0.666,0,1
		c-1,0-2,0-3,0c-1.333,0-2.667,0-4,0C289.19,561.489,291.948,562.581,291.963,560.93z"/>
	<path fill-rule="evenodd" clip-rule="evenodd" fill="#FEC9B3" d="M311.961,571.929c0.903-1.763,2.237-3.097,4-4
		c0.163,1.163-0.221,1.779-1,2C313.534,570.168,313.274,571.575,311.961,571.929z"/>
	<path fill-rule="evenodd" clip-rule="evenodd" fill="#FB9D7D" d="M304.962,564.93c2.534-1.133,2.512-4.821,6.999-4
		c2.039,0.294,1.96,2.706,4,3c0,1.333,0,2.666,0,3.999c-1.763,0.903-3.096,2.237-4,4c-0.333,0-0.667,0-1,0
		c-1.052-4.386,3.382-3.284,3-6.999c-0.354-1.313-1.76-1.573-2-3c-1.162-0.163-1.779,0.221-2,1c-1.636,2.03-4.566,2.767-5,5.999
		c0.184,0.851-0.39,0.943-1,1c-1.333,0-2.666,0-4,0C301.874,568.507,303.541,566.841,304.962,564.93z"/>
	<path fill-rule="evenodd" clip-rule="evenodd" fill="#FDB093" d="M313.961,564.93c-3.235,1.235-0.764-3.235-4-2
		c0.221-0.779,0.837-1.163,2-1C312.201,563.356,313.607,563.616,313.961,564.93z"/>
	<path fill-rule="evenodd" clip-rule="evenodd" fill="#FEC9B3" d="M283.964,572.929c1.373-2.579,6.126-0.222,7.999,0
		C290.941,575.156,287.366,571.621,283.964,572.929z"/>
	<path fill-rule="evenodd" clip-rule="evenodd" fill="#FB9D7D" d="M281.965,570.929c1.182-1.151,3.534-1.132,5.999-1
		c2.615-0.282,4.301,0.365,4,3c-1.873-0.222-6.626-2.579-7.999,0c-1.926,2.024-4.023,2.324-6.999,0.999
		c-1.583-0.083-3.813,0.481-4-0.999c0-0.334,0-0.667,0-1c2,0,4,0,6,0C280.384,572.015,281.796,572.094,281.965,570.929z"/>
	<path fill-rule="evenodd" clip-rule="evenodd" fill="#FEC9B3" d="M274.966,577.928c-1.556-0.261-0.694-2.193,0-3
		c-1.72,0.054-2.563-0.77-3-1.999c0.333,0,0.667,0,1,0c0.186,1.48,2.416,0.916,4,0.999c-1.666,1.987,0.09,1.271,0,4
		C276.299,577.928,275.632,577.928,274.966,577.928z"/>
	<path fill-rule="evenodd" clip-rule="evenodd" fill="#FEC9B3" d="M400.95,573.928c0.775,0.225,1.972,0.028,1.999,1
		c-1.614-0.281-1.721,0.945-2.999,1c0-0.333,0-0.666,0-1C399.767,574.077,400.34,573.985,400.95,573.928z"/>
	<path fill-rule="evenodd" clip-rule="evenodd" fill="#FDB093" d="M401.95,576.928c0,0.667,0,1.333,0,2
		c-1.995,1.005-1.578,4.421-5,3.999c0-0.333,0-0.666,0-0.999c0.333,0,0.667,0,1,0c1.257-0.41,2.044-1.29,2-3
		C401.036,578.681,400.628,576.939,401.95,576.928z"/>
	<path fill-rule="evenodd" clip-rule="evenodd" fill="#FDB093" d="M292.963,576.928c0,0.667,0,1.333,0,2c-0.667,0-1.333,0-2,0
		c0-0.667,0-1.333,0-2C291.63,576.928,292.297,576.928,292.963,576.928z"/>
	<path fill-rule="evenodd" clip-rule="evenodd" fill="#FB9D7D" d="M303.962,583.927c1.891,0.225,2.206-1.127,4-1
		c-0.319-2.318,0.161-3.839,1-4.999c0.972,0.027,0.776,1.224,1,2c0,1.333,0,2.666,0,3.999c-1.163-0.162-1.779,0.221-2,1
		c-3.336-0.003-3.413,3.253-6.999,3c0-0.667,0-1.333,0-2C301.769,585.066,303.701,585.333,303.962,583.927z"/>
	<path fill-rule="evenodd" clip-rule="evenodd" fill="#FDB093" d="M278.965,578.928c-0.715,1.621,4.715,1.621,4,0
		c0.776,0.224,1.972,0.027,2,1c-0.776,0.224-1.972,0.027-2,1c-1.453-0.547-5.168,1.168-5-1
		C278.022,579.317,278.115,578.743,278.965,578.928z"/>
	<path fill-rule="evenodd" clip-rule="evenodd" fill="#FB9D7D" d="M396.95,582.927c3.422,0.422,3.005-2.994,5-3.999c0,1,0,2,0,3
		c-1.769,0.898-2.92,2.413-5,2.999c-1.265,2.401-7.884-0.552-8.999,2c0,0.333,0,0.666,0,1c0,1.333,0,2.666,0,3.999
		c-1.547-1.453-2.099-3.9-1.999-6.999c0.333,0,0.666,0,0.999,0c2,0,4,0,6,0C395.679,585.655,394.964,582.94,396.95,582.927z"/>
	<path fill-rule="evenodd" clip-rule="evenodd" fill="#FDB093" d="M298.962,587.927c0.003-1.003-0.81-1.19-1-2
		c0.89,0.614,1.788,1.208,2,0c0.333,0,0.667,0,1,0c0,0.667,0,1.333,0,2C300.296,587.927,299.629,587.927,298.962,587.927z"/>
	<path fill-rule="evenodd" clip-rule="evenodd" fill="#FEC9B3" d="M299.962,584.927c1.891,0.225,2.206-1.127,4-1
		c-0.261,1.406-2.193,1.14-3,2c-0.333,0-0.667,0-1,0C299.962,585.594,299.962,585.26,299.962,584.927z"/>
	<path fill-rule="evenodd" clip-rule="evenodd" fill="#FDB093" d="M387.951,586.927c1.115-2.552,7.734,0.401,8.999-2
		C396.6,588.242,391.188,586.496,387.951,586.927z"/>
	<path fill-rule="evenodd" clip-rule="evenodd" fill="#FEC9B3" d="M387.951,594.926c2.078,0.56,2.119,1.56,1,2.999
		c-0.666,0-1.333,0-2,0C386.67,596.311,387.896,596.204,387.951,594.926z"/>
	<path fill-rule="evenodd" clip-rule="evenodd" fill="#FEC9B3" d="M386.951,602.925c-1.059-2.535,2.105-5.699,3-3
		c-0.333,0-0.667,0-1,0C387.301,599.94,388.392,602.698,386.951,602.925z"/>
	<path fill-rule="evenodd" clip-rule="evenodd" fill="#FB9D7D" d="M386.951,602.925c1.44-0.227,0.35-2.984,2-3c0,1.333,0,2.667,0,4
		c0.551,2.217-1.909,1.423-2,2.999c-1.162-0.162-1.778,0.221-1.999,1c-2.209,0.125-0.425,4.241-1,5.999c0.426,1.907,2.856,1.81,2,5
		c-3.21-1.124-2.247-6.419-4-8.999c-0.423-2.09,0.686-2.647,1-4c-0.184-0.851,0.39-0.942,1-1
		C385.523,604.829,387.419,605.059,386.951,602.925z"/>
	<path fill-rule="evenodd" clip-rule="evenodd" fill="#FEC9B3" d="M380.952,609.924c-0.279-2.279,0.241-3.759,2-4
		c-0.314,1.353-1.423,1.91-1,4C381.619,609.924,381.285,609.924,380.952,609.924z"/>
	<path fill-rule="evenodd" clip-rule="evenodd" fill="#FDB093" d="M381.952,609.924c1.753,2.58,0.79,7.875,4,8.999
		c0.856-3.19-1.574-3.093-2-5c0.333,0,0.666,0,1,0c0.353,1.313,1.76,1.573,1.999,3c0,1,0,2,0,3c-1.614,0.281-1.721-0.945-2.999-1
		C382.636,616.572,381.165,614.377,381.952,609.924z"/>
	<path fill-rule="evenodd" clip-rule="evenodd" fill="#FEC9B3" d="M295.963,609.924c0.437-1.484,1.279,0.395,3,0
		c1.106,3.113,0.646,3.574-2,2C297.125,610.761,296.742,610.145,295.963,609.924z"/>
	<path fill-rule="evenodd" clip-rule="evenodd" fill="#FEC9B3" d="M291.963,621.922c-3.027-0.032,0.707-6.287,1-2.999
		C291.792,619.084,292.12,620.745,291.963,621.922z"/>
	<path fill-rule="evenodd" clip-rule="evenodd" fill="#FDB093" d="M291.963,621.922c0.157-1.177-0.172-2.838,1-2.999
		c0.779,0.221,1.163,0.837,1,1.999c-0.003,1.004,0.81,1.19,1,2c-2.629-2.599-0.787,1.616-3.999,1c0-0.333,0-0.667,0-1
		C291.573,622.865,292.147,622.772,291.963,621.922z"/>
	<path fill-rule="evenodd" clip-rule="evenodd" fill="#FDB093" d="M379.952,619.923c3.327-0.689,1.611,2.066,1,2.999
		c-0.89-0.443-1.788-0.878-2-2C378.769,620.072,379.343,619.979,379.952,619.923z"/>
	<path fill-rule="evenodd" clip-rule="evenodd" fill="#FDB093" d="M285.964,628.921c0.028-0.312,0.786-6.713,4-2.999
		c-3.907-1.291-3.907,3.291,0,2c-0.016,1.65-2.773,0.559-3,1.999c-0.333,0-0.667,0-1,0
		C285.964,629.588,285.964,629.255,285.964,628.921z"/>
	<path fill-rule="evenodd" clip-rule="evenodd" fill="#FEC9B3" d="M285.964,629.921c-4.828-1.288-2.297-6.776,2-6.999
		c-1.619,1.313-6.561,4.408-2,5.999C285.964,629.255,285.964,629.588,285.964,629.921z"/>
	<path fill-rule="evenodd" clip-rule="evenodd" fill="#FDB093" d="M373.953,622.922c0.333,0,0.667,0,1,0
		c-0.292,0.614-2.487,3.85,0,4c0,1,0,1.999,0,2.999c0,0.333,0,0.667,0,1c-0.333,0-0.667,0-1,0c0.086-1.419,0.165-2.831-1-2.999
		c0-1,0-2,0-3C372.791,623.76,373.174,623.143,373.953,622.922z"/>
	<path fill-rule="evenodd" clip-rule="evenodd" fill="#FDB093" d="M368.954,637.92c-1.966,0.3-1.983-1.35-3-1.999
		c0-0.667,0-1.334,0-2c1.742-0.075,3.11,0.224,4,1c-0.221,0.779-0.837,1.162-2,1c0.221,0.778,0.837,1.162,2,0.999
		c0,0.334,0,0.667,0,1C369.621,637.92,369.287,637.92,368.954,637.92z"/>
	<path fill-rule="evenodd" clip-rule="evenodd" fill="#FEC9B3" d="M294.963,632.921c-0.776-0.89-1.075-2.258-1-4
		c0.667,0,1.333,0,2,0c1.158,1.48,1.158,2.521,0,4C295.63,632.921,295.296,632.921,294.963,632.921z"/>
	<path fill-rule="evenodd" clip-rule="evenodd" fill="#FB9D7D" d="M299.962,629.921c4.055-1.079,5.884,0.075,10.999-1
		c0.877,4.66-2.593-1.377-3,2c-0.333,0-0.667,0-1,0c-1.453,0.547-5.167-1.168-4.999,1c-1.003-0.003-1.19,0.81-2,1
		C295.746,633.091,299.98,631.385,299.962,629.921z"/>
	<path fill-rule="evenodd" clip-rule="evenodd" fill="#FEC9B3" d="M307.961,630.921c0.407-3.377,3.876,2.66,3-2
		c1.747,0.921,2.207,3.126,2,6c-0.333,0-0.667,0-1,0c-0.099-7.173-0.467-0.911-3,0c0.292-0.614,2.487-3.85,0-4
		C308.628,630.921,308.295,630.921,307.961,630.921z"/>
	<path fill-rule="evenodd" clip-rule="evenodd" fill="#FEC9B3" d="M307.961,637.92c0.157,1.177-0.172,2.839,1,3c0,0.333,0,0.666,0,1
		c-1.256-0.41-2.044-1.29-2-3C306.778,638.069,307.352,637.977,307.961,637.92z"/>
	<path fill-rule="evenodd" clip-rule="evenodd" fill="#FEC9B3" d="M365.954,635.921c-0.416,2.22-5.482,0.959-4.999-1
		c1.768,1.856,2.919-0.435,4.999-1C365.954,634.587,365.954,635.254,365.954,635.921z"/>
	<path fill-rule="evenodd" clip-rule="evenodd" fill="#FDB093" d="M319.96,641.92c0.149-1.332-4.065-3.018-1-4
		c2.181-0.182,3.181,0.818,3,3c-1.165,0.168-1.086,1.58-1,3C320.181,643.699,319.797,643.082,319.96,641.92z"/>
	<path fill-rule="evenodd" clip-rule="evenodd" fill="#FDB093" d="M326.959,642.92c2.64,0.359,3.597,2.402,3,5.999
		c-0.333,0-0.667,0-1,0c0.147-2.48,0.186-4.853-2-4.999C326.959,643.586,326.959,643.253,326.959,642.92z"/>
	<path fill-rule="evenodd" clip-rule="evenodd" fill="#FDB093" d="M326.959,650.919c0,0.333,0,0.666,0,0.999
		c-0.156,1.177,0.172,2.839-1,3c-0.85,0.185-0.943-0.39-1-1C326.399,653.692,325.308,650.934,326.959,650.919z"/>
	<path fill-rule="evenodd" clip-rule="evenodd" fill="#FEC9B3" d="M326.959,642.92c-2.48,0.146-4.852,0.186-4.999-2
		C322.566,642.646,326.703,640.843,326.959,642.92z"/>
	<path fill-rule="evenodd" clip-rule="evenodd" fill="#FEC9B3" d="M358.955,640.92c2.054,0.279,1.996,2.671,3,3.999
		c-1.256-0.409-2.043-1.289-2-2.999c-1,0-2,0-3,0C357.176,641.141,357.793,640.757,358.955,640.92z"/>
	<path fill-rule="evenodd" clip-rule="evenodd" fill="#FEC9B3" d="M362.955,646.919c1.755,0.549,2.166,8.07-2,5.999
		C362.651,651.948,363.524,650.155,362.955,646.919z"/>
	<path fill-rule="evenodd" clip-rule="evenodd" fill="#FB9D7D" d="M356.956,641.92c1,0,2,0,3,0c-0.044,1.71,0.743,2.59,2,2.999
		c-0.163,1.163,0.221,1.779,1,2c0.569,3.236-0.303,5.029-2,5.999c-1.991,1.01-4.271,1.729-5,4c-1.163-0.163-1.779,0.221-2,1
		c-4.29-0.291-3.287,4.711-6.999,4.999c-0.012-4.678,3.284-6.049,6.999-6.999c1.763-0.903,3.096-2.236,4-4
		c0.61-0.057,1.184-0.148,1-0.999C363.733,648.825,357.463,644.89,356.956,641.92z"/>
	<path fill-rule="evenodd" clip-rule="evenodd" fill="#FDB093" d="M353.956,654.918c2.039-0.294,1.961-2.705,4-3
		c-0.903,1.764-2.236,3.097-4,4C353.956,655.585,353.956,655.251,353.956,654.918z"/>
	<path fill-rule="evenodd" clip-rule="evenodd" fill="#FDB093" d="M318.96,660.917c1.463,2.669,5.486-0.418,5-2.999
		c1.163-0.163,1.779,0.221,2,1c-2.52,1.479-3.245,4.754-7.999,3.999c-0.15-2.487-3.386-0.292-4,0c-0.163-1.162,0.221-1.779,1-2
		c1,0,2,0,3,0C318.293,660.917,318.627,660.917,318.96,660.917z"/>
	<path fill-rule="evenodd" clip-rule="evenodd" fill="#FEC9B3" d="M319.96,667.916c0.282-1.614-0.945-1.721-1-2.999
		c0.333,0,0.667,0,1,0c0.851-0.185,0.943,0.39,1,1c0,0.666,0,1.333,0,1.999C320.626,667.916,320.293,667.916,319.96,667.916z"/>
	<path fill-rule="evenodd" clip-rule="evenodd" fill="#FDB093" d="M350.956,667.916c-0.779-0.221-1.162-0.837-1-1.999
		c1.182-0.145,2.267-1.78,3,0C353.323,667.617,352.176,667.803,350.956,667.916z"/>
	<path fill-rule="evenodd" clip-rule="evenodd" fill="#FEC9B3" d="M320.96,669.916c2.055-2.164,4.164-0.055,2,2
		c-0.224,0.775-0.027,1.973-1,2c-0.224-0.776-0.028-1.973-1-2C320.96,671.249,320.96,670.583,320.96,669.916z"/>
	<path fill-rule="evenodd" clip-rule="evenodd" fill="#FEC9B3" d="M325.959,686.914c-0.239-1.427-1.646-1.687-2-3
		c1.463,0.87,3.169,1.497,3,4C326.109,688.098,326.016,687.524,325.959,686.914z"/>
	<path fill-rule="evenodd" clip-rule="evenodd" fill="#FEC9B3" d="M321.96,683.914c-1.017-0.649-1.034-2.299-3-1.999
		c0-0.334,0-0.667,0-1c2.503-0.17,3.13,1.536,4,2.999C322.626,683.914,322.293,683.914,321.96,683.914z"/>
	<path fill-rule="evenodd" clip-rule="evenodd" fill="#FDB093" d="M316.96,676.915c-2.71-0.904,0.842-3.681,2-3.999
		C318.947,674.902,316.232,674.188,316.96,676.915z"/>
	<path fill-rule="evenodd" clip-rule="evenodd" fill="#FB9D7D" d="M350.956,673.916c0.211-1.122,1.11-1.557,2-2
		c-0.075,1.742,0.223,3.109,1,3.999c0,1.334,0,2.667,0,4c-0.19,0.81-1.003,0.997-1,2c-1.613,1.705-5.154,0.915-6-1
		c-2.502-0.17-3.13,1.536-4,2.999c-0.667,0-1.333,0-2,0c-3.88-2.626,5.64-1.973,2-3.999c0.241-1.759,1.72-2.279,4-2
		c0.56,1.44,1.56,2.44,3,3c0.851,0.184,0.943-0.39,1-1C352.597,680.079,352.597,673.752,350.956,673.916z"/>
	<path fill-rule="evenodd" clip-rule="evenodd" fill="#FDB093" d="M346.957,677.915c1.987,0.013,1.271,2.729,4,2
		c-0.057,0.61-0.149,1.184-1,1C348.516,680.355,347.517,679.355,346.957,677.915z"/>
	<path fill-rule="evenodd" clip-rule="evenodd" fill="#FDB093" d="M339.958,683.914c-0.055-1.278-1.282-1.385-1-2.999
		c1.496-0.171,3.69,0.356,4-1c3.641,2.026-5.88,1.373-2,3.999C340.624,683.914,340.291,683.914,339.958,683.914z"/>
	<path fill-rule="evenodd" clip-rule="evenodd" fill="#FEC9B3" d="M342.957,683.914c0.87-1.463,1.497-3.169,4-2.999
		c0.845,1.915,4.386,2.705,6,1c-0.124,4.564-5.674,0.543-7,0C344.644,682.268,344.384,683.675,342.957,683.914z"/>
	<path fill-rule="evenodd" clip-rule="evenodd" fill="#FB9D7D" d="M302.962,415.948c-1.795,0.129-2.34-0.993-2-3
		c0.043-1.376-0.471-2.195-1-3c1,0,2,0,3,0C302.962,411.949,302.962,413.948,302.962,415.948z"/>
	<path fill-rule="evenodd" clip-rule="evenodd" fill="#FDB093" d="M281.965,417.948c0,0.667,0,1.333,0,2c-0.667,0-1.333,0-2,0
		c0-0.667,0-1.333,0-2C280.631,417.948,281.298,417.948,281.965,417.948z"/>
	<path fill-rule="evenodd" clip-rule="evenodd" fill="#FDB093" d="M305.962,427.946c0.168-1.165,1.581-1.085,3-1
		c0,0.667,0,1.333,0,2c-0.667,0-1.333,0-2,0C306.905,428.336,306.812,427.763,305.962,427.946z"/>
	<path fill-rule="evenodd" clip-rule="evenodd" fill="#FDB093" d="M362.955,430.946c0.776,0.224,1.972,0.027,2,1
		c-0.057,0.61-0.149,1.184-1,1C363.175,432.725,362.792,432.108,362.955,430.946z"/>
	<path fill-rule="evenodd" clip-rule="evenodd" fill="#FDB093" d="M335.958,434.946c-0.221-0.779-0.837-1.163-2-1
		c0.658-1.342,2.138-1.862,4-2c0,0.667,0,1.333,0,2C337.148,434.136,336.961,434.949,335.958,434.946z"/>
	<path fill-rule="evenodd" clip-rule="evenodd" fill="#FDB093" d="M342.957,434.946c-0.779-0.221-1.163-0.837-1-2
		C343.582,432.646,344.654,434.296,342.957,434.946z"/>
	<path fill-rule="evenodd" clip-rule="evenodd" fill="#FEC9B3" d="M257.968,443.944c2.916-1.47,2.916,4.47,0,3
		C257.968,445.944,257.968,444.944,257.968,443.944z"/>
	<path fill-rule="evenodd" clip-rule="evenodd" fill="#FDB093" d="M330.958,448.944c-1.534-0.239-0.147-1.646,1-2
		c0.31,1.356,2.503,0.829,4,1C336.126,450.112,332.412,448.397,330.958,448.944z"/>
	<path fill-rule="evenodd" clip-rule="evenodd" fill="#FB9D7D" d="M273.966,464.942c-1.958,1.868-0.309,3.662,0,5.999
		c-2.396-0.396,0.555,4.554-3,3c0.722-3.056-1.022-3.644-1-6C270.485,466.679,272.404,461.87,273.966,464.942z"/>
	<path fill-rule="evenodd" clip-rule="evenodd" fill="#FB9D7D" d="M425.946,471.941c0.827,2.826-1.409,2.59-0.999,5
		c-0.777,0.89-1.075,2.258-1,4c-0.225,0.776-0.027,1.972-1,2c-0.055-1.278-1.282-1.385-1-3c0-1.333,0-2.667,0-4
		c1.122-0.211,1.557-1.109,2-2C425.269,473.929,424.86,472.188,425.946,471.941z"/>
	<path fill-rule="evenodd" clip-rule="evenodd" fill="#FEC9B3" d="M421.947,475.94c0,1.333,0,2.667,0,4
		c-1.172-0.161-0.844-1.823-1-3C420.764,476.09,421.337,475.997,421.947,475.94z"/>
	<path fill-rule="evenodd" clip-rule="evenodd" fill="#FDB093" d="M272.966,479.94c-0.17-1.496,0.357-3.69-1-4
		c0.091-1.385,2.55-1.05,2,1C274.052,478.359,274.131,479.772,272.966,479.94z"/>
	<path fill-rule="evenodd" clip-rule="evenodd" fill="#FDB093" d="M275.965,486.939c-0.113,1.22-0.299,2.368-2,2
		C274.079,487.719,274.265,486.571,275.965,486.939z"/>
	<path fill-rule="evenodd" clip-rule="evenodd" fill="#FEC9B3" d="M258.968,501.938c0,1.333,0,2.666,0,3.999c-0.333,0-0.667,0-1,0
		c0-1,0-1.999,0-2.999C257.784,502.087,258.358,501.994,258.968,501.938z"/>
	<path fill-rule="evenodd" clip-rule="evenodd" fill="#FDB093" d="M255.968,507.937c1.22,0.113,2.368,0.299,2,2
		c-1.571-0.096-3.467,0.134-3-2C255.301,507.937,255.635,507.937,255.968,507.937z"/>
	<path fill-rule="evenodd" clip-rule="evenodd" fill="#FEC9B3" d="M273.966,539.933c0,1,0,2,0,2.999c0,0.667,0,1.334,0,2
		C272.333,545.383,272.333,539.482,273.966,539.933z"/>
	<path fill-rule="evenodd" clip-rule="evenodd" fill="#FEC9B3" d="M414.948,543.932c2.916-1.47,2.916,4.47,0,3
		C414.948,545.932,414.948,544.932,414.948,543.932z"/>
	<path fill-rule="evenodd" clip-rule="evenodd" fill="#FDB093" d="M405.949,571.929c-0.779-0.221-1.162-0.837-1-2
		C406.574,569.63,407.646,571.278,405.949,571.929z"/>
	<path fill-rule="evenodd" clip-rule="evenodd" fill="#FB9D7D" d="M399.95,575.928c1.278-0.055,1.385-1.281,2.999-1
		c0,0.334,0,0.667,0,1c-0.609,0.057-1.184,0.149-0.999,1c-1.322,0.012-0.914,1.753-2,2
		C399.95,577.928,399.95,576.928,399.95,575.928z"/>
	<path fill-rule="evenodd" clip-rule="evenodd" fill="#FB9D7D" d="M284.964,579.928c2.422,0.911,2.647,4.018,3,6.999
		c-1.641-0.164-1.641,6.163,0,5.999c0,1,0,2,0,3c-0.211,1.121-1.109,1.557-2,1.999c0.319-2.318-0.161-3.838-1-4.999
		c-1.404-3.498,2.804-6.4,0-7.999c0-0.667,0-1.333,0-2c-0.443-0.89-0.878-1.788-2-1.999
		C282.992,579.955,284.188,580.151,284.964,579.928z"/>
	<path fill-rule="evenodd" clip-rule="evenodd" fill="#FEC9B3" d="M385.952,584.927c-0.1,3.099,0.452,5.546,1.999,6.999
		c0-1.333,0-2.666,0-3.999c2.744,1.129-0.043,7.21-1.999,3.999C386.78,589.315,382.928,586.44,385.952,584.927z"/>
	<path fill-rule="evenodd" clip-rule="evenodd" fill="#FDB093" d="M294.963,603.925c-1.571-0.096-3.467,0.134-3-2c1,0,2,0,3,0
		c0.168,1.165,1.581,1.086,3,1c0,0.333,0,0.666,0,1C296.963,603.925,295.963,603.925,294.963,603.925z"/>
	<path fill-rule="evenodd" clip-rule="evenodd" fill="#FEC9B3" d="M293.963,614.923c1.47,2.917-4.47,2.917-3,0
		C291.963,614.923,292.963,614.923,293.963,614.923z"/>
	<path fill-rule="evenodd" clip-rule="evenodd" fill="#FB9D7D" d="M294.963,622.922c0,0.667,0,1.333,0,2
		c-0.81,0.189-0.997,1.003-2,1c-1,0-2,0-3,0c-3.213-3.714-3.972,2.687-4,2.999c-4.561-1.591,0.381-4.686,2-5.999c1,0,2,0,3,0
		c0,0.333,0,0.667,0,1C294.176,624.538,292.334,620.323,294.963,622.922z"/>
	<path fill-rule="evenodd" clip-rule="evenodd" fill="#FB9D7D" d="M289.964,627.922c1.22,0.113,2.367,0.299,2,1.999
		c-1.177,0.157-2.838-0.172-3,1c-0.333,0-0.667,0-1,0c-0.057-0.609-0.149-1.184-1-1C287.19,628.48,289.948,629.572,289.964,627.922z
		"/>
	<path fill-rule="evenodd" clip-rule="evenodd" fill="#FB9D7D" d="M311.961,634.921c0.003,1.003-0.81,1.189-1,1.999
		c-0.333,0-0.667,0-1,0c-0.083,1.584,0.48,3.814-1,4c-1.172-0.161-0.843-1.823-1-3c1.172-0.161,0.843-1.822,1-2.999
		C311.494,634.01,311.862,627.748,311.961,634.921z"/>
	<path fill-rule="evenodd" clip-rule="evenodd" fill="#FB9D7D" d="M373.953,630.921c0.021,3.354,0,6.666-4,5.999
		c-1.162,0.163-1.779-0.221-2-0.999c1.162,0.162,1.779-0.221,2-1c1.23-0.437,2.054-1.28,2-3c1.48-0.186,0.917-2.416,1-3.999
		C374.118,628.09,374.039,629.502,373.953,630.921z"/>
	<path fill-rule="evenodd" clip-rule="evenodd" fill="#FDB093" d="M356.956,638.92c-1.261,3.081-3.005-1.114-1-2
		C356.734,637.141,357.118,637.758,356.956,638.92z"/>
	<path fill-rule="evenodd" clip-rule="evenodd" fill="#FB9D7D" d="M321.96,640.92c0.147,2.186,2.519,2.146,4.999,2
		c0,0.333,0,0.666,0,1c2.186,0.146,2.147,2.519,2,4.999c-0.443,0.89-0.878,1.788-2,2c-1.651,0.015-0.56,2.773-2,2.999
		c-1.114-4.78,3.114-4.218,2-8.999c-1,0-2,0-3,0c-1.419,0.086-2.832,0.166-3-0.999C320.874,642.5,320.795,641.088,321.96,640.92z"/>
	<path fill-rule="evenodd" clip-rule="evenodd" fill="#FB9D7D" d="M317.96,662.917c-1.386,0.091-1.051,2.55,1,2
		c0.055,1.278,1.282,1.385,1,2.999c-1.868-0.798-3.662-1.67-5.999-1.999c0-1,0-2,0-3C314.574,662.625,317.81,660.43,317.96,662.917z
		"/>
	<path fill-rule="evenodd" clip-rule="evenodd" fill="#FDB093" d="M331.958,685.914c0.368,1.701-0.78,1.887-2,2
		c1.984-2.306-0.251-1.111-1-3C330.136,685.07,331.797,684.742,331.958,685.914z"/>
	<path fill-rule="evenodd" clip-rule="evenodd" fill="#FB9D7D" d="M246.969,435.945c1.576-0.09,0.783-2.55,3-2
		c-0.308,4.974,6.837,2.495,6.999,6.999c-3.18-0.153-4.399-2.267-7.999-2C247.712,438.535,246.925,437.656,246.969,435.945z"/>
	<path fill-rule="evenodd" clip-rule="evenodd" fill="#FB9D7D" d="M333.958,433.946c1.163-0.163,1.779,0.221,2,1
		c-0.261,2.927,2.261,3.072,2,5.999c-0.81-0.19-0.997-1.003-2-1c-1.004-1.329-0.945-3.72-3-4
		C332.796,434.783,333.179,434.167,333.958,433.946z"/>
	<path fill-rule="evenodd" clip-rule="evenodd" fill="#FB9D7D" d="M331.958,446.944c1.182-0.485,2.267-1.066,3-2
		c0.667,0,1.333,0,2,0c3.588-0.589,4.837,1.162,6.999,2c0.529-0.804,1.043-1.624,1-3c1.746-2.473,2.207-2.012,2,2
		c-0.353,1.313-1.76,1.573-2,3c-2.492-0.841-5.357-1.309-8.999-1C334.462,447.773,332.268,448.301,331.958,446.944z"/>
	<path fill-rule="evenodd" clip-rule="evenodd" fill="#FB9D7D" d="M259.967,449.944c0.979-3.423,5.77,2.673,7-1c1,0,2,0,3,0
		c-0.354,1.313-1.76,1.573-2,3c-0.333,0-0.667,0-1,0c-1.333,0-2.667,0-4,0C261.247,451.997,260.404,451.174,259.967,449.944z"/>
	<path fill-rule="evenodd" clip-rule="evenodd" fill="#FB9D7D" d="M394.95,516.936c0.873-1.461,0.795-3.872,4-3
		c1.373-2.279-2.577-3.759,0-3.999c2.688-0.689,1.933,2.066,3,2.999c1.31,4.31-4.761,1.239-4,5c0.333,0,0.667,0,1,0
		c0.057,0.609,0.149,1.184,1,1c-0.004,1.003,0.81,1.189,1,1.999c-0.333,0-0.667,0-1,0
		C397.958,519.927,396.448,518.437,394.95,516.936z"/>
	<path fill-rule="evenodd" clip-rule="evenodd" fill="#FB9D7D" d="M270.966,535.933c1.615-0.281,1.721,0.945,3,1c0,1,0,2,0,3
		c-1.633-0.45-1.633,5.45,0,4.999c0,0.667,0,1.333,0,2c-2.217,0.551-1.424-1.909-3-2c0-0.333,0-0.667,0-1
		c-3.885-2.748,3.583-4.852,0-6.999C270.966,536.6,270.966,536.267,270.966,535.933z"/>
	<path fill-rule="evenodd" clip-rule="evenodd" fill="#FB9D7D" d="M408.949,561.93c1.474-5.091,1.509-5.588,1.999-10.999
		c-1.181-0.484-2.267-1.065-2.999-1.999c0.278-2.318,2.67-2.299,3.999-1c0.057,0.609,0.149,1.184,1,1c0,1.333,0,2.666,0,3.999
		c1.713,4.771-4.006,7.25-1,9.999c-0.595,2.071,1.236,6.568-1,6.999C407.278,568.472,411.716,564.706,408.949,561.93z"/>
	<path fill-rule="evenodd" clip-rule="evenodd" fill="#FB9D7D" d="M275.965,553.931c0.028-0.973,1.224-0.776,2-1
		c1.686,2.717-1.586,4.683,2,5.999c1,0,2,0,3,0c-0.716,2.716,4.715-0.715,3.999,2c-1.666,0-3.333,0-4.999,0c-0.667,0-1.333,0-2,0
		c-0.271-2.061-4.427-0.238-4-2.999C275.965,556.597,275.965,555.264,275.965,553.931z"/>
	<path fill-rule="evenodd" clip-rule="evenodd" fill="#FB9D7D" d="M294.963,582.927c0.609-5.05,3.309,1.821,5,2c0,0.333,0,0.667,0,1
		c-0.211,1.208-1.109,0.614-2,0C296.986,584.903,295.986,583.904,294.963,582.927z"/>
	<path fill-rule="evenodd" clip-rule="evenodd" fill="#FB9D7D" d="M294.963,601.925c3.552-1.88,5.757,0.876,8.999,2
		c0,0.333,0,0.666,0,0.999c-2.7,0.3-1.793,4.207-4,5c-0.015-2.651,0.555-5.888-2-5.999c0-0.334,0-0.667,0-1
		C296.543,603.011,295.131,603.09,294.963,601.925z"/>
	<path fill-rule="evenodd" clip-rule="evenodd" fill="#FB9D7D" d="M318.96,660.917c1.598-1.401,2.555-3.444,3-5.999
		c0.667,0,1.333,0,2,0c0,1,0,2,0,3C324.446,660.499,320.423,663.586,318.96,660.917z"/>
	<path fill-rule="evenodd" clip-rule="evenodd" fill="#FB9D7D" d="M320.96,671.916c0.972,0.027,0.776,1.224,1,2
		c-0.168,1.165-1.581,1.085-3,1c-0.279,2.278,0.241,3.758,2,3.999c2.262,2.404,5.059,4.272,7.999,5.999c0.749,1.889,2.984,0.694,1,3
		c-1,0-2,0-3,0c0.17-2.503-1.536-3.13-3-4c-0.333,0-0.667,0-1,0c-0.869-1.463-1.497-3.169-4-2.999c-0.89-0.443-1.788-0.878-2-2
		c0-0.667,0-1.333,0-2c-0.729-2.728,1.987-2.013,2-3.999C319.963,672.919,320.15,672.105,320.96,671.916z"/>
	<path fill-rule="evenodd" clip-rule="evenodd" fill="#FEC9B3" d="M288.964,562.93c1.333,0,2.667,0,4,0c-0.186,1.48-2.417,0.916-4,1
		c-0.851,0.184-0.943-0.391-1-1C288.297,562.93,288.631,562.93,288.964,562.93z"/>
	<path fill-rule="evenodd" clip-rule="evenodd" fill="#FEC9B3" d="M388.951,583.927c1.496,0.171,3.69-0.356,4,1c-2,0-4,0-6,0
		C386.979,583.954,388.176,584.15,388.951,583.927z"/>
	<path fill-rule="evenodd" clip-rule="evenodd" fill="#FDB093" d="M291.963,468.941c-1.206-2.75,1.615-7.987,2-3
		C292.312,465.957,293.404,468.715,291.963,468.941z"/>
	<path fill-rule="evenodd" clip-rule="evenodd" fill="#FDB093" d="M287.964,599.925c1.163-0.162,1.779,0.221,2,1
		c-0.016,1.311-2.773,1.273-3,0C287.021,600.314,287.114,599.741,287.964,599.925z"/>
</g>
</svg>
